<?xml version="1.0" standalone="no"?><!DOCTYPE svg PUBLIC "-//W3C//DTD SVG 1.1//EN" "http://www.w3.org/Graphics/SVG/1.1/DTD/svg11.dtd"><svg class="icon" width="200px" height="200.00px" viewBox="0 0 1024 1024" version="1.1" xmlns="http://www.w3.org/2000/svg"><path fill="#707070" d="M571.4 436.4l-36.2-36.2-242.1 242.2-15.3 51.4 51.5-15.3 242.1-242.1z m145.1-145.1c10-10 10-26.2 0-36.2s-26.2-10-36.2 0l-112 112 36.2 36.2 112-112z m27.2 450.1H279.5c-12.5 0-22.7 11.5-22.7 25.6 0 14.1 10.2 25.6 22.7 25.6h464.2c12.5 0 22.7-11.5 22.7-25.6 0-14.1-10.2-25.6-22.7-25.6z m0 0" /></svg>