<?xml version="1.0" standalone="no"?><!DOCTYPE svg PUBLIC "-//W3C//DTD SVG 1.1//EN" "http://www.w3.org/Graphics/SVG/1.1/DTD/svg11.dtd"><svg class="icon" width="200px" height="200.00px" viewBox="0 0 1024 1024" version="1.1" xmlns="http://www.w3.org/2000/svg"><path d="M465.4 654.3c-48.4 0-96.8-18.4-133.6-55.2-73.7-73.7-73.7-193.6 0-267.3 73.7-73.7 193.6-73.7 267.3 0 73.7 73.7 73.7 193.6 0 267.3-36.9 36.8-85.3 55.2-133.7 55.2z m0-335.8c-37.7 0-75.3 14.3-104 43-57.3 57.3-57.3 150.6 0 207.9 57.3 57.3 150.6 57.3 207.9 0 57.3-57.3 57.3-150.6 0-207.9-28.6-28.7-66.3-43-103.9-43z" fill="#3366CC" /><path d="M569.288 599.035l29.698-29.698 148.491 148.49-29.698 29.699z" fill="#3366CC" /><path d="M570.4 465.4h-42c0-34.7-28.3-63-63-63v-42c57.9 0 105 47.1 105 105z" fill="#F4A914" /></svg>